# xmcd
# 
# Track frame offsets:
#   150
#   21875
#   36247
#   53227
#   68350
#   80985
#   95162
#   115730
#   131840
#   150135
#   165327
#   182127
#   198980
#   214655
#   231785
# 
# Disc length: 3291 seconds
# 
# Revision: 2
# Processed by: cddbd v1.5.2PL0 Copyright (c) Steve Scherf et al.
# Submitted via: Synapstar 1.0 
# 
DISCID=c40cd90f
DTITLE=Various Artist - 6034
DYEAR=1900
DGENRE=Country
TTITLE0=McEntire, Reba - Falling Out Of Love
TTITLE1=Alabama - Here We Are
TTITLE2=Strait, George - Famous Last Words Of A Fool
TTITLE3=Cline, Patsy - She's Got You
TTITLE4=Loveless, Patty - Chains
TTITLE5=Jennings, Waylon - Wrong
TTITLE6=McEntire, Reba - You Lie
TTITLE7=Carpenter, Mary Chapin - Down At The Twist and Shout
TTITLE8=Jackson, Alan - Midnight In Montgomery
TTITLE9=Cline, Patsy - So Wrong
TTITLE10=Jackson, Alan - Someday
TTITLE11=Tucker, Tanya - Down To My Last Teardrop
TTITLE12=Nelson, Willie - All Of Me
TTITLE13=Travis, Randy - Forever and Ever Amen
TTITLE14=Forrester Sisters - Leave It Alone
EXTD=MediaType: Karaoke CD+G Producer: Other
EXTT0=
EXTT1=
EXTT2=
EXTT3=
EXTT4=
EXTT5=
EXTT6=
EXTT7=
EXTT8=
EXTT9=
EXTT10=
EXTT11=
EXTT12=
EXTT13=
EXTT14=
PLAYORDER=
